/* XPM */
static char *_64eeb4c567c4438b473e33d1435c40f0h9S5pW9IC2ulAD5[] = {
/* columns rows colors chars-per-pixel */
"64 64 68 1 ",
"  c #623517",
". c #653618",
"X c #673818",
"o c #6B3A19",
"O c #743E1B",
"+ c #77401C",
"@ c #7C431D",
"# c #82461F",
"$ c #85481F",
"% c #8A4A1F",
"& c #864920",
"* c #8C4B21",
"= c #924E22",
"- c #965123",
"; c #9C5425",
": c #955328",
"> c #9D5628",
", c #9D582C",
"< c #A05624",
"1 c #A15624",
"2 c #A25725",
"3 c #A05626",
"4 c #A15726",
"5 c #A35726",
"6 c #A25827",
"7 c #A45826",
"8 c #A55926",
"9 c #A75926",
"0 c #A45A27",
"q c #A95A26",
"w c #A85B27",
"e c #AA5B27",
"r c #A25929",
"t c #A15A2B",
"y c #A45A28",
"u c #A65B2A",
"i c #A15B2D",
"p c #A45B2C",
"a c #A35D2D",
"s c #A65E2F",
"d c #A75E2F",
"f c #A85A28",
"g c #AB5B28",
"h c #AA5C29",
"j c #A85C2B",
"k c #AF5E28",
"l c #A85E2D",
"z c #AC5F2D",
"x c #B15E29",
"c c #B15F29",
"v c #B15F2B",
"b c #A8622A",
"n c #AB622A",
"m c #AD602E",
"M c #B46029",
"N c #B4612B",
"B c #B5662B",
"V c #B1632F",
"C c #B2632F",
"Z c #B5662F",
"A c #B5692D",
"S c #A96030",
"D c #AE6230",
"F c #B16431",
"G c #B36430",
"H c #B56733",
"J c #B56932",
"K c #B56A34",
/* pixels */
"FFDsDFDsssdbdddiiddFFHHsislDsFllddidldpdilsDsllpGdDGFFdssDS,dJKJ",
"JlsplmGCzlysii>r:3dzHFllyszllrpsd,i>i>>,syllplsllFzlzFsrrspdFJGJ",
"Cry>rhMBhr>>>>>>>;2ekFFzrrxl464e-4>>>**:;;=1y>>>fz4GgF5qfrrrzJGG",
">;;44gfe4fy;-*==4e;ekvcx74;4;e1-==>4;=;-;==4r;;;3xvfgfy2k3h>hMnM",
"e;1;1111e-e-===;4;2-1ec2e41-*-==--;;4-;yq-*=;41e3fxe;22xxq;;eexe",
"k7e;e2;21-=%;;4-=q-2;x244e--==%%*;4k44xe71==;141ffe222exM1214k4-",
"444x;1;2-%==-;;;2;;;;ee2kk-==%=1xcBBMBxe1--21kke7;7eqq;;1qe4e;11",
";-e2;=;%-#%==-*-;;=42e-*4=%%%#%=4xfkbxnf=%%%244;e;2;;=**;xe;;=;=",
"%=-=$&*@#@%%#O#%**-==%%%=%#####@%#=%->;>%##%=;;--==%%=%=-4;;==%%",
"$%%#O@OOo@@OOOO@@$@###O@OO@@#OOOO@OO$&-%#O##$%%$##@@@@@+#==*#@#$",
"#.o.oOO@@#@#Ooo ..oooO@@@######@O@O@$*%*OXXXoooo@@@####@#%#$$$#@",
"=OOO#$&&%%%%%#OOoooo@#%%%%$=%=*%##%%-;*%%@OO@@+*%%==%%%*%=%%%%%=",
"$#O==;====;==%=%@OO@%=-=-==;4;=-=%*=66-=%@$@%%;;--;1;=--;4--==-;",
"%#%=4;44;;11e11=*@+@*;4;4;;-74>;;-=;ek6=%#@$#-;e;e244>;7;6;;;;;;",
"*&*;4422222e411--%#$*;4;42;76kk674-4xMe;%%*-;>442ex7h76677;6>;;%",
"&$-2fygyffqe41114-#$-;44e4eehkek76;6kk>==%;67e47eb6eykeex77774;%",
"&=353f4xek662e662-$%-266ukkehkhk7-6eh;**%;7273y74x44e6wk667h66-%",
"%-gf3g227;666e2w;;#=-666kkkhyeee>66eh;$$*;y;7y;e276f76w666k6e6;$",
"&22f53y3;7eee;6;>-#%-627kxkee6677676u-$*-44ey347y7777ee766eh6-$%",
"=2293;f56667e66e;%##-677hxk4h7>716667-@$=>y77274;y67h7e77ee66-$%",
";4g2yffg66e6y3y;-$@#;;8Meef444646-1;6-$$;g;e6e26y6;;e7646>fkM-#%",
";y;fq2x56e7r733;*$@$-;777776444;;>;>6-$$-24;77774;-4fy>;;6exk-$*",
"-;y>72y7eefeg7;&@$$@%-7e74744;>;1;;;-%&@-67f42;6;1;4k77>-;yMM-$%",
"4;;7-44r77;-r-**#*$%%-662444;;76>;;7-$$+->ee77;7;;4efkh;667qn6$$",
"442214>;*=***#$$$@&#*-6;6664>4;7eee;-*$$*>66e>;;;44677444-477;%$",
"-4-;=;$#$$&***%*#&&@**->66;4747hek6=$$$@%;77e4-4;;446;447767-;$$",
"*&*&$###*=-==-;>>--&@&*%;676f776k6*$$&$$%*>74;1174;;646e7176;%$$",
"####$&%%;4f24g44677-$%*%-46667ne;=$%@@&$$$%=-;--=;==-;6;6;-6-$$@",
"***==;;;y2yg5-;4M777>%%%%;;e7>6;-%%----;%$$*****#$$#$%-;>;--%$%-",
">4;;4-4>22322r>ee76666=$#--;---*%%-6;u6e;-%$#&$$%##$$##%**$$$%;7",
"24;;>2;4f35xMqyye7;6e7;$#%%*%**$->e6e6w6>;-*$****-==;;*+##@$$-7h",
"3y44222>3fy2gBe266>;;6-%#$$%%%--;676uw6e74;*****;7476>>-$$@$-6ee",
"44477-7;464enneee-6-76-*$%%--;;67khuMkeu66;-**#->>;6;;6;=%@%;64e",
"444;7;-6;4;;6MMM6464>;-&$%;>6eMeM7kk6e66e6M;$%---;6w166;-%##;66;",
"44;-7;-;;->;476ek>76;;&&*;6ke7M77eeke6k6eeM;%@;>6;w612>>;-#%-;6;",
"e77;6;;-174667MM7;6h-*@#=76kMhMxkkMwwk766e6-$$&;2;w288266;$%;e66",
">e;44;;167eekfe7e6646*$$;6eh7r67enkeewu6;67-&@*--666MMAkk;%%>6e4",
"477766;6-66hMM66;-1;-=##>MkkN664f77Muw6676-*&+&--ewMBBMN7>*=6ef7",
";4;;-;66-77Me67>-;616*+#;MhkMxx7fkk7kn88e6;*@@&*-wnBMB6e>=*=;7e6",
"4;;;-;e66;6ee-;;774k7*$#>kkMMM7724eeqkeeea-&@+&*66MMNMw6;%%*-76h",
"4;6;-;7;>4444y7eheke;$##;ekkk7h6yx2hhy76h7>%@@#*>77kMMMe=%%%*=77",
";;;;>;;----;;27xnMx4=##%4eMkhh772xhhM7kek7;$@@@%=-77kMe;%$%%%*--",
"$%;-***%*&##&*467>;=*$#$-7BBBBef6rxexkxkk;$$$$@##$-66>-=%*-;-*#$",
"$$=%@@$$@$$#%==*-%=$%$*#*-rbhbf7ef7ykek6;$##$$@#@@$-*-==-;>k6;=#",
"#$*%**;;*===**%*$$%$#*&&%*-----;>76e7-;=$#%--*=%%%-*$$=772e766;-",
"--;66e66;;44--*%$$#$&*******%%$$*---**-%$-766677--*$$*4xk2e2;;;;",
"he6MMbk644k7-*%$%%=;;6767->--;%#$$****=-;6hhee666-$@&>fBf4;464>6",
"kkxMxe767bek6*$*-->;67hfe6ee66;%$@$*$*-;7eeh6-;6e-##*4kx7761;7-4",
"kMkhw>e67hMk-$%->;4;;;46eeee4;-*#@$$$-6u6e7667e76;$$;66e67u67;66",
"kxMk6e7M7M66%$%;4;->-;67e66644;>-$$$%-66e76e6667;;$*;;64e7ekhe67",
"kkky6767ee6-$@-644-;-6x7e67ke477;*#$-;6;6;-666676-%$-66ehkkh7e;6",
"6kNNMe>eM6>%#@->744;44MM66y7e764>-#&-;-666e761;;;-&$;666Mkkue676",
"67fxMx6eh6;%$*67k7764ekk>;7777e>6-#&-6---16e27;;;**#->eeekkue766",
"efkCkk6eh6y*@%>7ef774xbe;447e767;;$#-;-;6667e466>;%$%>7ew66ee66k",
"MkMMMuhh66-*+$-;;>;;2xMk47776676;-##-;;;;6k6hhee6;$$*=4M6bkeMeM6",
"rMk6;7kh6;;%@@;---;;7xCM2;>2e7;r;$##-;;;;eek64kke;%%%>e7eMekk7-;",
";;67hk777e>-#@-;-;>67eek6724e7>;%$$$$;;;7Myk7ykee;$$$=-rh7e7k6**",
"@$*-;6e6e66-$@%=-;;;>6xk47744-=*#@@@*-;6;Mxkke6k;*$%$%--67667%$*",
"**$&&;>>;;>;$$#%-->-;7exM76>-*&#%*@$$%->ekhhkfhx-%=;-=*--;-;*#*-",
"-;%$#$**---&#$$$%=>444efM7;-*$@%--;-$$%-exyefh>;%;4e76-*=-%%#*;-",
">6;-*&$@=*=*$$#@#*->k7kq>;-%%$$*-eM;-*$%=y6xe;*%=;xMkk;*%$$#*=--",
"ee7>;**#$*=----*&%*=444--%*%**$-67776-*%*-;;;;==;>Mxkkh>*##$*;;;",
"MMM6>;-*%%*;k66;=*#**==-$$%$=;6666e6>>--*#%*$%=4;;;kMkM7-*%*=4ex",
"kM6476;*$*-;Mh664=#*;==-%$$=4e66yeee667;**#$$$=666kkkM74>-#*-yNB"
};
