/* XPM */
static char *b60b8fc73a6d411dfc9242c36937dac6StgkrrZZ9kDe0TTm[] = {
/* columns rows colors chars-per-pixel */
"64 64 42 1 ",
"  c black",
". c #303000",
"X c #202020",
"o c #2C2C2C",
"O c gray22",
"+ c #404000",
"@ c #484800",
"# c #585800",
"$ c #686800",
"% c #707000",
"& c #004040",
"* c #005858",
"= c #006C6C",
"- c #007070",
"; c #007474",
": c #007878",
"> c #007C7C",
", c #484848",
"< c gray33",
"1 c #646464",
"2 c gray44",
"3 c #7C7C7C",
"4 c #848000",
"5 c #949000",
"6 c #9C9800",
"7 c #008484",
"8 c #008C8C",
"9 c #009898",
"0 c #00A4A4",
"q c #20B0B0",
"w c #20B4B4",
"e c #48C0C0",
"r c #74C8C8",
"t c gray55",
"y c #989898",
"u c gray66",
"i c #B4B4B4",
"p c #9CDCDC",
"a c #B8E8E8",
"s c #C0C0C0",
"d c #D0D0D0",
"f c #D8F4F4",
/* pixels */
"OOOOOOOOOOOOOOOOOOOOOOOOOOOOOOOOOOOOOOOOOOOOOOOOOOOOOOOOOOOOOOOO",
"O>:::::::::::::::::::::::::::::::::::::::::::::::::::::::::::::O",
"Oq998;-q88888;-q98888;-q88888;-q88888;-q88888;-q88888;-q888888:O",
"Oqqqq>&-qqqqq>&-qqqqq>&-qqqqq>&-wweeq>&-eeeqq>&-qqqqq>&-q98898:O",
"Oqqqq:>8qqqqq:>8qqqqq:>8qqqqq:>8werpq:>8eeqqq:>8qqqqq:>8988898:O",
"Oqqqq7****************************************************8998:O",
"Oqqqqq>:-------------------------------------------------*8998:O",
"O97aqpq8888888888888888888888888888888888888888888888888-*97a8:O",
"O>-7qae00000000000000000qqqqwwwwwewewewewwwwqqq000009998-*>-78:O",
"O:>8qar000000000000000qqqqqwwwwwewewewewwwwqqq0000099998-*:>88:O",
"O00qqar0000000000000qqqqqwwwwewewewewewwwwqqq00000909998-*9008:O",
"Oqqqqar00000000000qqqqqwwwwwewewewewewwwwqqq0q0009099888-*9008:O",
"Oqqqqar00000000qqqqqqwwwwewewewewewewwwwqqq0q00090998888-*90q8:O",
"Oqqqqar000000qqqqqqwwwwwewewewewewewwwwqqq0q000909999888-*00q8:O",
"Oqqqqar0000qqqqqqwwwwwwewewewewewewwwwqqq0q0009099998888-*0qq8:O",
"O97aqar00qqqqqqqwwwwwwewewewewewewwwwqqq0q00090999988888-*97a8:O",
"O>-7qarqqqqqqqwwwwwewewewewewewewwwwqqqqq000009999888788-*>-78:O",
"O:>8qarqqqqqwwwwwwewewewewewewewwwwqwqqq0000099998888788-*:>88:O",
"O00qqarqqqwwwwwwwewewewewewewewwwwqwqqq00000909989887888-*00q8:O",
"Oqqqqarqwwwwwwwwewewewewewewewwwwqwqqq000009099898887888-*0qq8:O",
"Oqqqqarwwwwwwwwewewewewewewewewwqwqqq0000090998988888888-*0qq8:O",
"Oqqqqarwwwwwewewewewewewewewewwqwqqq0q000909999888878888-*qqq8:O",
"Oqqqqarwwwwewewewewewewewewewwqwqqq0q0000099998888788888-*qqq8:O",
"O97aqarwwwewewewewewewewewewwqwqqq0q00000999989887888898-*97a8:O",
"O>-7qarwwewewewewewewewewewwqwqqq0q000009999898878888888-*>-78:O",
"O:>8qarwewewewewewewewewewwqwqqq0q0000099998988787888898-*:>88:O",
"O00qqarewewewewewewewewewwqwqqqqq00000909989887878888988-*0008:O",
"Oqqqqarweweweweudddddddssqwqqqqq000009099898878788888898-*q008:O",
"Oqqwwareweweweq312233tyuswqqqqq0000090999988887878888988-*0098:O",
"Oqwwwarwe%56eq>o1Ou23<dyiqqqqq00000909999898878788889898-*0978:O",
"Owwwware:+#6w0>o1112233tiqqqq0q0009099998988787878888998-*08>8:O",
"O97awar7;.#5r8>o11112233iqqq0q00000999989887878788889898-*8:e8:O",
"O>-7waq78.#5e8>o11111223uqq0q000009999898878787878898998-*>=:8:O",
"O:>8ea97p.#5e8>o<,#44622uq0q0000099998988887878788889998-*:>88:O",
"O00err97r.#4e8>o,o@  412u0q00000909989888878787888898998-*>>98:O",
"Oerrpw97r.#4e8>oOo@  411uq000009099898988787878788989998-*>898:O",
"Orrppq97r.#4e8>ooo+oo411u0000090999989887878787888899998-*7808:O",
"Orppaq97e.#%e8>ooo++@#11u0000909999898878787878888989998-*7808:O",
"Opaaaq97e.#%e8>ooooooo11y0009099998988787878788889899998-*89q8:O",
"Orwafq97e.#$e8>oooooo,11y0090999989888878787878888999998-*8>p8:O",
"Oq>waq978;.@w8>oOO,,<111y0009999898888787878788889899998-*>->8:O",
"Oqqraw97::7ww8>oOX2<1ot1t0090998988887878787888898999908-*:>88:O",
"Orrapw9777www8>ooO<<<111t0909989898878787878888889999998-*7908:O",
"Ofappw978wwwq8>ooooooooo19099998988787878787888898999908-*8908:O",
"Oapprw99wwwwq8>>>>>>>>>>90999989888878787878888989999098-*90q8:O",
"Opprrw9wwwwqq8888888888009999898888787878788889899999908-*90q8:O",
"Opreeeqwwwqqqqqqq0q0000099998988887878787888888989999098-*00q8:O",
"O97aeawwwqqqqqqq0q00000999989888878787878788889899999908-*97a8:O",
"O>-7eaewqqqqqqq0q000009999898888787878787888898999999008-*>-78:O",
"O:>8earqqqqqqq0q0q00090998989887878787878888889899990908-*:>88:O",
"O00eearqqqqqq0q0q000909989898888787878788888898999999008-*00q8:O",
"Oeeewarqqqqq0q0q0009099998988887878787878888989999990908-*00q8:O",
"Oeewwarqqqq0q0q00090999989888878787878788888898999999008-*00q8:O",
"Owwwwarqqq0q0q0q0909999898888787878787888888989999990008-*00q8:O",
"Owwwwarqq0q0q0q00099998988887878787878888889899999909008-*0qq8:O",
"O97awarqqq0q0q000999989888878887878787888898989999990008-*97a8:O",
"O>-7warqq0q0q0009999898888888878787878888889899999909000:*>-78:O",
"O:>8qarrrrrrrrrrrrrrrrrreeewwq0000qweeeeeeeeeeeewwwwwwww>*:>88:O",
"O00qqaaaaaaaaaaaaaaaaaaapppprreeerrpppppppppppppppprrrre8>00q8:O",
"Oqqqqqqqqqqqqq000099999999877>>>>>78899999900qqqqqqqqqqqqqqqq8:O",
"Oqqqq97aqqqqq97a099999-w9877>:-9>>7899-w9990q97aqqqqq97aqqqqq8:O",
"Oqqqq>-7qqqqq>-799999>&-877>>-&*>7789>&-9900q>-7qqqqq>-7qqqqq8:O",
",qqqq:>8qqqqq:>899999:>8877>>--:77899:>8990qq:>8qqqqq:>8qqqqq8:,",
"<<<<<<<<<<<<<<<<<<<<<<<<<<<<<<<<<<<<<<<<<<<<<<<<<<<<<<<<<<<<<<<<"
};
