/* XPM */
static char *df140074a30c489ea34b0b6b250084e9ztwnImBMTQ7KHUMu[] = {
/* columns rows colors chars-per-pixel */
"128 128 21 1 ",
"  c #010000",
". c #004343",
"X c #005B5B",
"o c #006F6F",
"O c #007373",
"+ c #007777",
"@ c #007B7B",
"# c #007F7F",
"$ c #008787",
"% c #008F8F",
"& c #009B9B",
"* c #009F9F",
"= c #00A7A7",
"- c #00B7B7",
"; c #23B3B3",
": c #23B7B7",
"> c #4BC3C3",
", c #77CBCB",
"< c #9FDFDF",
"1 c #BBEBEB",
"2 c #DBF7F7",
/* pixels */
".-@@+@+@++++++++++@+++@++++++@+++++@@@@+@++++@+++++@@@@+@+++@+++@+@+@+@+++@@@+@+@+++++++++@+++@+++++++++++++++++++@+@+@+++++@++ ",
".-+++++++++++++++++++++++++++@+++++++++++++++@+++++++++++++++++++++++++++++++++++++++++++++++++++++++++++++++++++++++++++++++++ ",
".-@@@@@@@@@@@@@@@@@+@@@@@@+@+++++++@@@@@@@+@+++++++@@@@@@@@@@@@@@@@+@@@@@@@@@@@@@@@@@@@@@@@+@@@@@@@@@@@@@@@@@@+@+@@@@@@@@@@@@@+ ",
".-++++++++++++++++++++++++@@++@@+@@+++++++@@++@@+@@+++++++++++++++++++++++++++++++++++++++++++++++++++++++++++++@++++++++++++++ ",
".-@@@%%%%OO@@@+@@@@@@@@@@@@@@@@@+@@@@@@+@@@@@@@@+@@@@@@+@@@@@@+@@@@@@@@@+@@@@@@+@@@@@@+@@@@@@@@@+@@@@@@+@@@@@@@@@+@@%%%%OO@@@@+ ",
".-+@%===%#XX++@@@+@@@+@@@@@@@@@@@@@@@#@@@@@@@@@@@@@@@#@@@#@@@@@@@@@#@@@+@@@+@#@+@#@+@+@@@+@@@+@+@@@++@@++@@+@+@++@@%===%#XX+@++ ",
".-#@O><>%o..o@@@@@@@@@##@##@##@##@@#####@##@##@##@@#######@#@#@@@#@#@#@#@#@#@#@###@@@@@@@@@@@@@@@@@@@@@@@@@@@@@@@@@O><>%o..@@@+ ",
".-@@o&-&#X..X@#@@@@@@#@########@@##@@#@########@@##@@@@#@@@@@@#@@@@@@@@@#@@@@@@#@@@@@@#@@@@@@@@@#@@@@@@#@@@@@@@@@#@o&-&#X..@@@+ ",
".-##XO##X...X#########@##@@#@@##@#####@##@@#@@##@##############################################################@#@#XO##X...###+ ",
".-@@oX.....XX@@@@@@@@@@@@@@#@@@@@@@@@@@@@@@#@@@@@@@@@##@@@@@@@@@@@@#@@@@@@@@@@@@@@@@@@@@@@@#@@@@@@@@@@@@@@@@@@@@#@@oX.....X@@@+ ",
".-###oX...XXo#@#####@@#@@#@@@#@@#@##@@#@@#@@@#@@#@@###################################@#########@##@@##@##@@###@####oX...XX###+ ",
".-####oXXXXO##@#@###################################################################@#@#@#@###@#@@@@@@@@@@@@@@@@@####oXXXXO#@#+ ",
".-#%#%#O#%####%##%##%##X.##%###X.%##%##X.##%###X.##%%#%oX#%###%oX#%#%##XX###%#%X.#%###%X.#%####X.######X.#########%#%#O#%#####+ ",
".-###############%##%##X.##%###..%##%##X.##%###X.######..######..######..######..######..######..######..#######%#############+ ",
".-%%%%#%%%%%%%%%%%%%%%%%%%%%%%%%%%%%%%%%%%%%%%%%%%%%%%%#%%%%%%%%%%%%%%%%%%%%%%%#%%%%%%%%%%%%%%%%%%%%%%%#%%%%%#####%%%#%%%%%##%+ ",
".-##%%#%%##%##%%##%%#%%%#%%#%#%#++##+###+##+##++##+++##++#+++++##+++++##+++++##++#+++++##+++++##+++++##++#++++#$#%#%%#%%##%%%#+ ",
".-%%%%%%%%%%%%%#%%%%%OX..................................................................................OO#%%%%#%%%%%%%%%%###+ ",
".-%%%%&%%%%%%%%#%%%%%XXXXXXXXXXXXXXXXXXXXXXXXXXXXXXXXXXXXXXXXXXXXXXXXXXXXXXXXXXXXXXXXXXXXXXXXXXXXXXXXXXXXX&O%%%%#%%%%&%%%%%%%%+ ",
".-%%&%&%&&&%&&&$#$$%&.X+$$$$$$$$$$$$$$$$$$$$$$$$$$$$$$$$$$$$$$$$$$$$$$$$$$$$$$$$$$$$$$$$$$$$$$$$$$$$$$$$$&*;%%$$%%%&%&%&&&%%%%+ ",
".-%%%%%%&%&&&&&&%&&&%.X$%%%%%&%%%%%%&%%%%%%&%%%%%%%%%&%%%%%%&%%%%%%&%%%%%%%%%%%&&&&&%&&&&&&%&&&&&&&&&%&&&*:,%%&&&&%%%%%&%&&%%&+ ",
".-&&&%%%#OO&%%%&%&&&&.X$&&&&&&&&&&&&&&&&&&&&&&&&&&&&&&&&&&&&&&&&&&&&&&&&&&&&&%&&%%&&%&&%%&&%&&%%&%%&&%&&%*>,&&&%%&&&%%%%OO&&%%+ ",
".-%%%===%#Xo&&%&%%%%%.X$&%%%%%%%%%%%%%%%%%%%%%%%&%%%%%%%%%%%%%%%%%%%%%%%&&%%%%%%%%%%%%%%%%%%%%%&&%&&&%%%&*>,%%%%%&%%===%#XX&&%+ ",
".-&&O><>%o..O&&&&%%%&.X$&&%&&%&&&%&&&&&%&&&%&&&&&&&&&&&&&&&&&&&&&&&&&&&&&&&&&&%%&&%%&%%&&%%&%%&%&&&%%=&%&*>,%%&&&%&O><>%o..%&&+ ",
".-&&o&-&#X..O$&&&&%&&.X$%%%%%%%%&&&%&%&%%%&%&&&&&&&&&&&&&&&&&&&&&&&&&&&&&&&&&&&&&&&&&&&&&&&&&&&&&&&&&=&&&*>,%%%%&%&o&-&#X..%&&+ ",
".-=&XO##X...O$&=&&&&&.X$&&&&&&&&&=&&&=&&&&&&&&&=&=&===&&&=&=&=&=&&&=&&&=&====&&&&&=&&&=&&=&&&&&&=&&&&&&=&*>,&&&&&&&XO##X...&&&+ ",
".-&&OX.....X$&&==&=&&.X$&&&&&&&&&&&&&&&&&&&&&&&&&&&&&&&&&&&&&&&&&&&&&&&&&&&&&&&&&&=&&&=&&=&&==&&=&&==&&=&=>,==&&&&&OX.....X&=&+ ",
".-===OX...XO$===&====.X%============&=======================&=============================================>,====&&==OX...XO&&&+ ",
".-=&&=$OOOO$*==&&====.X%=&&==&&=&&==&==&&=&&==&&=&&==&&=&&==&==&&=&&==&&=&&====&==&&==&=====&===&=========>,&====&&&=$OOOO$&&=+ ",
".-=====*$$$*======;==.X&=======================================================&================&=========>,=====&====*$$$*&&=+ ",
".-===================.X&&==&&===&=&===&===&=&=;=&=;=&===&===;=========;===;===============================>,=&================+ ",
".-=;;=;;;=;;==;;;=;=;.X&======================;;;=;=;=;=;=;=;=;===;=;=;;;;;;;==;;=;;=;;=;;;=;;=;;;=;;=;;;=>,======;;=;;;=;;===+ ",
".-===================.X%;======;=========;======;======;=========;======;=================================>,=====;=========;=;+ ",
".-;==;;=;;=;;;=======.X%;==;;==;==;;=;;==;==;;==;==;;==;==;;=;;==;==;;==;==;;;;=;;==;==;;=;;==;;=;;==;;=;=>,=;;=;===;;=;;=;==;+ ",
".-;;;===;;;;;;;;;;=;;.X&============================================================;===========;;;==;;==;>,==;=;=;;===;;;;;;;+ ",
".-;=;;;:=:;;;;:;=;;;=.X&=;;==;;=;;;;;;;;;=;;;;;;;;;;;;;;;;;;;;;;;;;;;;;;;;;;;==;==;===;==;==;;=;;=;::==:;;>,===;;==;;;:=:;;===+ ",
".-;;;;;:;;;;;;:;;;;;;.X&========;=;;;=;=;=;=;;;;;;;;;;;;;;;;;;;;;;;;;;;;;;;;;;;;;;;;;;;;;;;;;;;;;;;;;;;:;;,,==;==;;;;;:;;;;;;=+ ",
".-:;;&%%%O&:;;;;;;;:;.X&;;;;;;;:;;;:;:;:::;;;:;:;:;:;;::;;::;::::::;::;:::;:::;;;;;;:;;;;;;:;;:;;;:;;:;;;:,,;;;;;;;;%%%%O&:;;;+ ",
".-::%@==%#X&:::;::;::.X&;;;;;;;;;;;;;;;;;;;;;;;;;;;;;;;;;;;;;;;;;;;;;;;;;;;;;:;;::;;:;;::;;:;;:;:::;;::;:>,,;;;;:;:%@==%#X&;::+ ",
".-:>O><>%o..&::>>::::.X*;::::::::::::::::::::::::::::::::::::::::::::::::::::::::::::::::::::::::>:::>>>:><,:::::;>O><>%o..;;;+ ",
".-::o&-&#X..%>>:::>::.X;;::;;:;;:>:;:;:>:;:>:::>:>:::>:::>::>::>>::>::>>:>>::::::::::::::::::::::::>>::>:><,:;;:;::o&-&#X..::;+ ",
".-:>XO##X...%>>>>>>::.X;:::::::>:::>:>:>>>:>:>:::>>>:>:>::>>>>>>>>>>>>>>>>>>>:>>>>>>:>>>>>>:>>>>>>>>>:>>>><,::::::>XO##X...:::+ ",
".->>$X.....X%>>>>:>>>.X;>::>:::>::>:::>::>:::>::>::>:::>::>:::>::>:::>::>::>:>>:>>:>>>:>>:>>>:>>>>>:>>>:>><,::>::>>$X.....X>>>+ ",
".-,,,#X...X%=>>>>>>>>.X;>>>>>>>>>>>>>>>>>>>>>>>>>>>>>>>>>>>>>>>>>>>>>>>>>>>>>>>:>>:>>>:>>:>>>:>>>,>:>,>:>,1<>>>>>:,,#X...X%::>+ ",
".->>>>&%%%%=>>>>>>>>>.X;:::::>::>>>:>:>:::>>>>>>>>>>>,>>>>>>,>>>>>>,>>>>>>>>>>>>>>>>>>>>>>>>>>>>>>>>>>>>>,1<>:::>>>>>&%%%%=>>>+ ",
".-,,>,,>===>,,,,>>,>,.X>>>>>>>>>>,>>>>>>>>>>>>>,>,>>>,>>>,>>,>>,,>>,>>,,>,,>>>,,>>,,>,,>>,,>,,>>,>>,,>,,>,1<,>,>>>,>,,>===>>>>+ ",
".-,,,>>,,>>>,,,>>,,,,.X>>>>>>>>>>>>>>>>>>>>>>>>>>>>>>>>>>>>>>>>>>>>>>>>>>>>>>>>>>>>>>>>>>>>>>>>>,>>>>>>>>,1<>>>>>,,,>>,,>>>,,>+ ",
".-,,<,,,,,,<>>>>,,>,,.X>,,>,,>,,>>,,>,,>>,,>,,,,,,,,,>,,,>,,,,,,,,,,,,,,,,,,,,>>,,>>,>>,,>>,>>,>>>,>>,>>,,1<>,,>>>,<,,,,,,<>>>+ ",
".-,,<,,,,,,<,,,,,,,,,.X>>>>>>>>>>>>>>>>>>>>>,>,,,>,>,>,>,,,,,,,,,,,,,,,,,,,,,,,,,,,,,,,,,,,,,,,,,,,,,,,,,,11>>>>,>>>>,>>>,>>,,+ ",
".-<<<<<<<<<<<<<<<,,<<.X<,,,,,,,,,,,,,,,,,,,,,,,<,<,<<<,,,<,<,<,<,,<<,,<<,<<<<<<<<<<<<<<<<<<<<<<<<<<<<<<<<<11,,,,<<,,<,,<<,,,<<+ ",
".-<<<,<<<<,,<<<<,<<<,.X<,<<,,<<,<<,<<<,<<,<<,,<<,<<,,<<,<<,<<<,<<,<<,,<<,<<,,,,<,,<,,,<,,<,,<<,,<,,<<,,<,<11,,,<<<<<,<<<<<<<<<+ ",
".-1111<11<<111111<1<<.X<<<<<<<<<<<<<,<<<<<<<<<<<<<<<<<<<<<<<<<<<<<<<<<<<<<<<<<<<<<<<<<<<<<<<<<<<<<<<<<<<<<12,<<<,,111<11<<1,,<+ ",
".-<<11<<<<<1<<<<1<<<<.X<<,,<<,,<,,<<,<<,,<,,<1<,<,<1<,<1<,11<11<<1<<<1<<1<<11<<<<<<<<<<<<<<<<<<<<<<<<<<<<<12,<<,<<<11<<<<<1<<<+ ",
".-111%%%%O;1111111111.X<<<<<<<<<<<<<<<<<<<<<<<<1<1<111<1<111<111<111<<1111111<<<1<1111111<111111<111111<1<<2<<<<1<11%%%%O;1<<<+ ",
".-11====%#X%111111111.X<<<1<<1<<<1<<1<<1<<<1<<1<<<1<<1<<<1<<1<<1<<<1<<1<<<1<<<1<<<11<11<111<11<111<11<1111221<<<111====%#X&<11+ ",
".-22O><>%o..112111111.X,11111111111111111111111111111111111111111111111111111<111<11<11<111<11<111<11<111122<<11<<2O><>%o..<<<+ ",
".-11o&-&#X..>11111111.X<1<<<<<<1<<<<<<<<<1<<111<1<1<<<111<1111111211111121111111<111111122222222212221112122<<<<111o&-&#X..111+ ",
".-11XO##X...;21212121.X,1111122122111112111212111111111111121211121112112112211111111111222222222221122121221111111XO##X...111+ ",
".-11&X.....X=<1211111.X<1112222222121211121112111111111111111111111111111111111111111111111111111111111111221111121&X.....X221+ ",
".-111%X...X&:<1111111.X<22112221221222122122112212211221221222122122112212211221221221121211221111122112122222121111%X...X&111+ ",
".-<<<>;&&%&>,<1<<111<.X<111111111111111111111111111111111111111111111111111111111111111<12111111111111121222<<1121<<>;&&%&>111+ ",
".-1111>::::,<11111<11.X<1<11122222211122212121<111<111211121<111111<11<111<11<111111<11111111111111111111222<1<111111>::::,111+ ",
".-<<1<<<<<<1<<<111<1<.X,1<11111111111111111111<111<11111<111<11<<11<11<111<11<11<<11<1<<1<<1<<1<<<1<<1<<<22211<111<1<<<<<<1111+ ",
".-<<<<<<<111<<<11<<<<.X,111111111111111111111111<11111111111111111111111<111111111111<<11111111<<11<<111<1221111<<<<<<<<111<<1+ ",
".-<<,,<<<<<,111<<11<<.X<<1<<<<<<11<<1<<<1<<<<<1<<<1<<<<<1<<<<<<<<<<<<<<<<<<<<<<<<<<<<<<<<11<11<<<<<11<<1<1<2<<111<<,,<<<<<,111+ ",
".-<<<<<<<<<,<<<<<<<<<.X<<<<1<111111<1111111<11<<1<<<1<1<<<1<<<<<<<<<<<<<<<<<<<<<<<<<<<<<<<<<<<<<<<<<<<<<<1121<<<<<<<<<<<<<,<<<+ ",
".-,,<<,<<,<<<<,,<<<<<.X<<,<,<,<<<<<<<<<<<<<<<<,<<<,<,<,<,<<<,,<,,<,,,<,,<,,<,,,<,,<,,,<,<,<<<,<<,<<,,<<,<112<<,<<<,<<,<<,<<<<<+ ",
".-,,,<<,,,<<,,,,<<<,,.X><<<<<<<<<<<<<<<<<<<<<<<<<<<<<<<<<<<<<<<<<<<<<<<<<<<<<<<<<<<<<<<<<,<<<,<,,<<,,<<,,<12<<<<,,,,,,,,,<<,,<+ ",
".->>>>,>>,,>>>>,,,>,,.X>,,,,,,,,,,,,<,,,,,,,,,,,,,,,,,,,,,,,,,,,,,,,,,,,,,,,,,,,,,,,,,,,,,,,,,,,,,,,,,,,,<12,,,,,,>>>,>>,,><<<+ ",
".-,,>%%%%O%>,,,,,,,,,.X>,<,>,>,,<<,,<,,,<,,,,,<,>,<,>,>,<,>,,>>,,>>,>>,,>,,>>,>>,,>>,>>,,,,,,,,,,,,,,,,,,<11,,<,,,,>%%%%O%><<,+ ",
".->>%===%#X#>>>>>>>>>.X;,>>>,>,,,,,,,,,,,,,,,,>,>,>>>,>>>,,,>>>>>>>>>>>>>>>>>>>>>>>>>>>>>>>>>>>>>>>>>>>>><11,,>,,,>%===%#X$,,,+ ",
".->>O><>%o..>>>>>>>>>.X;,>,,>,,,>>,,>,,>>,,>,,>,,,>,,>,,>>,,>,,>>,,>,,>,,,>,,>,,>>,,>,,>,>>,>>,,>>,>>,>>,,11>>>>>>>O><>%o..>>>+ ",
".->:o&-&#X..*>>>>>>>>.X;>>>>>>>>>>>>>>>>>>>>>>>>>>>>>>>>>>>>>>>>>>>>>>>>>>>>>>>>>>>>>>>>>>>,>>>>>>,>>,>>>,11>>>>,>:o&-&#X..,,,+ ",
".->>XO##X...*>>>>>>>>.X;>,,,>,,>,,>,,,>,,>,,,,,>>>,,,>,>,>>>>>:>>>,>>>,>:>>>>>>:>>:>>>:>>>>>>>>>>>>>>>>>>,11>,,>>>>XO##X...>>>+ ",
".-::#X.....X*:>>>:>::.X;>>>>>>>>>>>>>>>>>>>>>>>>>>>>>>>>>>>>>>:>>>>>:>>>:>>::>>:>>:>>>:>:>:::>::>::>>::>:,11>>>>>>:#X.....X,>>+ ",
".-::;#X...X**>>>>:>::.X*>>>>>>>>>>>>:>>>>>>>>>>>>>>>>>>>>>>>:>>>>>>>>>>>>>>>>>>>>>>>:>>>>>>>>>>>>>>>>>>>>,<1>>>>:>:>#X...X*>>:+ ",
".-:::;$OO$$*::::::;::.X*:::>:::>::>>:>>::>::>>::>:::>:::::>:::>:::::>:::>:::::::::::::::>::>::>>:>>::>>:>,<1>>::>>::>$OO$$*>>>+ ",
".-::::::***::::::::::.X&:>>>:>>>>>>>>>>>>>>>>>>:>:>>>:>:>:::>:::>:>:::>:>::::::::::::::::::::::::::::::::,<<>>>::::::::***:::>+ ",
".-;;;;;;;;;;;;;;;:;;;.X&::::::::::::::::::::::::::::::::::::::;:;:;:;:::;;:;;:;;;:;;:;;:;;;;;;;;;;;;;;;;;><<:::>::;;;;;;;;;>:>+ ",
".-;;:;:::;;;::::;;:;;.X&;:;;:;;;;:;;:;;:;;;:;;:;;;:;;:;;;:;;:;;:;;;:;;:;;;:;;:;;;:;;:;;::::;::;:::;::;:::>,<;;;;;:;:;:::;;;>:;+ ",
".-;;;;;;;;;;;;;;;;;;;.X&;;;;;;;:;;;;;;;;;:;;;;;;:;;;;;;;;;;;;;;;;;;;;;;;:;;;;;;;;;;;;;;;;;;;;;;;;;;;;;;;;>,<;;:;::;;;;;;;;;::;+ ",
".-;;;;;;;;;;;;;;;;=;;.X&;;;:;;;:;;::;::;;:;;::;;:;;;:;;;;;:;=;:;=;=;:;=;:==;;==;==;;==;=;;;;;;;;;;;;;;;;;>,,::;:;;;;;;;;;;;;;;+ ",
".-===================.X%;;;;;;;;;;;;;;;;;;;;;;;;;;;;;;;;;;;;=;===;===;;;=================================:>,;;;;;;=========;;:+ ",
".-=;;==;==;;===;;===;.X&;;==;;;=;;=;;;=;;=;;==;;=;;==;;=;;=;;;=;;=;;==;;=;;==;;=;;==;;=;=;==;;==;==;;==;=;>,=;;;==;;==;==;;===+ ",
".-=====;=======;=;===.X&=================================================================;======;======;=;>,====;;====;====;;=+ ",
".-;;;%%%%OO=;;;;;;=;;.X&;=;;=;;;;;;;=;;;;;;=;;=;;;=;;=;;;;;;=;;;;;;=;;=;;;=;;=;;;=;;=;;;;;;;;;;=;;;===;==;>,;;;;==;;%%%%O#&===+ ",
".-;&%===%#Xo;;==&=;;=.X&;=;===;;===;=;===;===;=;=;=;===;================================;==;==;===;======;>,=;==;=&%===%#Xo=;;+ ",
".-==O><>%o..=========.X%;===;=;;;;;;=;;;===;===;=;===;===;=====================&=========================;>,===;===O><>%o..===+ ",
".-==o&-&#X..$&&======.X$==&========================&===&===&=&===&===&=====&&==&===&=&&=&==&==&&=&&==&&=&;>,=======o&-&#X..===+ ",
".-==XO##X...$===&===&.X$===================================================================&==============>,====&==XO##X...&&=+ ",
".-&=@X.....X$&&&&&&&&.X$&&=&&&&=&&=&&&=&&=&&&=&&=&&=&&&=&&=&&&=&&=&&&=&&=&&==&&=&&=&&&&&&&&&&&&&&&&&&&&&&*>,&=&====XX.....X===+ ",
".-&=&oX...XO$&=&==&==.X$&&=&&&&=&&=&&&=&&=&&&=&&=&&=&&&=&&=&&&=&&=&&&=&&=&&&&&&=&&=&&&&&=&===&&&&=&&&==&&*>,&&&&&&=&XX...XO&&=+ ",
".-&&&&$OOOO$&&&&&&&&&.X$&&&&&&&&&&&&=&&&&&&&&&&&&&&&&&&&&&&&&&&&&&&&&&&&&&&&&&&&&&&&&&&&&&&&&&&&&&&&&&&&&*>,&&&&=&&&&$OOOO$===+ ",
".-&&=&&$$$$&&&&&&&&=&.X$&=&&&&&&=&&&=&&&=&&&&&=&&&=&&&&&=&&&&&%&&&%&%&=&%%&%%&%%&&%%&%%&&&&&&&&&&&&&&&&&&*>,&&=&&&&=&&$$$$&&&&+ ",
".-&&&&&&&%%%%%%%&%%%&.X$&&&&&&&&&&&&&&&&&&&&&&&&&&&&&&&&&&&&%&&&%%%&&&%&%%%%%%%%%%%%%%%%%%%&%%%%%%%%%%%%%*>,&&&%&&&&&&&&%%%=&&+ ",
".-&&%&&&%&&&&&&&&&&%&.X$&%&&%&&&%%&&%&&%%&&%&&%&&&%&&%&&%%&&%&&%%&&%&&%%&&%&&%&&%%&&%&&%&&&&&&&&&&&&&&&%&*>,&&%&%%&%&&&%&&&%%%+ ",
".-&&%&&&%&&%&&%%&%%%&.X$&%&&%&&&&&&&%&&&&&&%&&%&&&%&&%&&&&&&%&&&&&&%&&&&&&%&&%&&&&&&%&&%%%%&%%%%%%&%%&&%%*>,&&%&&%&%&&&%&&%&&&+ ",
".-&&&&%&&&&&&&%&&&&&&.X$&&&&&&&%&&%&&&%&&%&&&&&&%&&&&&&%&&%&&&%&&%&&&%&&%&&&&&&%&&%&&&%%&&&&&&&&&%&&&&%%&*>,&&&&%%&&&%&&&&&%%&+ ",
".-%%%&%&%%%&%%%%&&&%%.X$&%%%&%&%&&%&%&%&%%%&%%%&%&%%%&%%%&%%%%%%%%%%%%%%%%%%%%%%%%%%%%%%%&%%%&%%&%%%%%%%%*>,%%%&&&%%&%&%%%&&&&+ ",
".-%&&&%&&&%%%%&%%%%&%.X$&&&%%%&&&&%&%&%%%&%%%&&&%&&&%%%&&&%%%%%%%%%#%%%%%%%%%%%%%%%%#%%%%%%%%%%%%%%%#%%%%&>,%%%&%%&&&%&&&%%%%&+ ",
".-%%%%%#%%%%%%%#%###%.X#%%%%%%%%%%%%%%%%%%%%%%%#%%%%%%%%%%%%%%%#%%%#%%%#%#%%%#%%##%%#%%#%##%##%%##%%#%%#%&>,%%%#%%%%%%#%%%%%%%+ ",
".-%%%%%%%OO%%%%#%%%%#.X#%%%%%%%%%%%%%%%%%%%%%%%%%%%%%%%%%%%%%%%%%%%%%%%%%%%%%%%%%%%%%%%%%%%%%%%%%%%%%%%%%&>,%%%%##%%%%%%OO%%%%+ ",
".-##%===%#XX###%##%##.X+#%##%###%%##%##%###%##%###%##%###%##%##%%##%##%###%##%###%##%##%#########%##%##%#&>,#%%%%%#%===%#Xo#%%+ ",
".-##O><>%o..###%#%#%%.X+#%##%#######%##%###%##%###%##%###%##%######%##%###%##%###%##%##%%%%#%%###%##%##%%&>,##%##%#O><>%o..###+ ",
".-##o&-&#X..#########.X+#######%##%#############%#############%##########################################&>,####%%#o&-&#X..o##+ ",
".-%#XO##X...####@####.X####%###%##%###%#####%###%###%#####%#@#%#@#@###@##@@##@@#@@##@@#@#####@@#@@##@@#@#&>,#######XO##X...o##+ ",
".-##XX.....X####@####.X+######################################@@@#@@@###@@@@@@@@@@@@@@@@@@@@@@@@@@@@@@@@@&>,#######XX.....X###+ ",
".-@@#XX...XO##@@#####.X+##@@###@##@##@@##@##@@##@##@@##@##@@##@##@##@@##@##@@##@##@@##@####@@##@##@@##@##&>,#@##@@@#XX...XO@##+ ",
".-####OXXOO###@@#####.X+#######@##@######@######@######@######@##@######@######@######@@@######@######@@#&>,#########OXXOO#@##+ ",
".-##@###OO#@#####@#@#.X+#@##@#######@##@###@##@###@##@###@##@######@##@###@##@###@##@#####@##@###@##@####&>,#@@#@##@###OO#@###+ ",
".-@#@#@#O#@@@@#@#@#@#.X@#@#@@@##@@@#@#@@@#@@@#@#@#@#@@@##@@@@@@@@@@@@@@@@@@@@@@@@@@@@@@@@@@@@@@@@@@@@@##@&>,@#@####@#@#O#@@@@@+ ",
".-@@@#@#@@@#@@@@@@@#@XX#$$$$$$$$$$$$$$$$$$$$$$$$$$$$$$$$$$$$$$$$$$$$$$$$$$$$$$$$$$$$$$$$$$$$$$$$$$$$$$$$$&,,#@@@@@@@#@#@@@####+ ",
".-@+@@@@@@@@@@@@@@@@+oX$******************************************************************************::,<>%@@@@@@+@@@@@@@@@@@+ ",
".-+++++++++++++@++++@+o$------------------------------------------------------------------------------,,-=%++++++++++++++++++++ ",
".-@@++@++@@+++@++@+++@++@+++@@++@++@@++@++@+++++@++@@++@++@+++@++@+++@++@++@@++@++@@++@++@+++@++@+++@@@+@@++@@++@@@++@++@@+@+++ ",
".-++++@+++++++@++@+++@++@+++@+++@++++++@++@+++@+@++++++@++@+++@++@+++@++@++++++@++++++@++@+++@++@+++@++++++++++++++++@+++++@+++ ",
".-++@+++@++++++++++@+++X.+@++@@X.++++++X.++++++X.++++++X.++++++X.++++++X.++++@+X.@+++++X.++@+++X.+@++@@X.+@@+@+@+++@+++@+++++++ ",
".-++@%%%%oO++++@+++@+++..+@++++..o+oo+o..@+o+o+..o+oo+o..@+o+o+..o+++++..++++@+..@+++++..++@+++..+@++++..++++@+@+++@%%%%OO+++@+ ",
".-++%===%#Xo+++++++++++++++++++++++++++++++++++++++++++++++++++++++++++++++++++++++++++++++++++++++++++++++++++++++%===%#XX++++ ",
".-++O><>%o..+++oo++o++oo++o++++oo+o++o++oo++o++oo++++o++oo++o++oo++o++oo++o++oo+oo++o++oo++o++oo++o++++oo+o++ooo+++O><>%o..+oo+ ",
".-++o&-&#X..X++++++o++++++o+++++++o++o++++++o++++++o+o++++++o++++++o++++++o+++++++++o++++++o++++++o+++++++o++++++++o&-&#X..++++ ",
".-++XO##X...X++++++++++++++++oo+o++++++++++++++++++++++++++++++++++++++++++++++++++++++++++++++++++++oo+o++++++++++XO##X...++++ ",
".-++XX.....XX++++++++++++++++++++++++++++++++++++++++++++++++++++++++++++++++++++++++++++++++++++++++++++++++++++++XX.....X++++ ",
".-oooXX...XXooooooo+oooooo+ooooooo+ooooooooo+oooooo+oooooooo+oooooo+oooooo+ooooooooo+oooooo+oooooo+ooooooo+oooooooooXX...XXooo+ ",
".-++++XXXXX++++++++++++++++++++++++++++++++++++++++++++++++++++++++++++++++++++++++++++++++++++++++++++++++++++++++++XXXXX+++++ ",
".-+++++++ooo+++oo+++ooooooooooooooooo+++++++++++++++++++++++++++++++++++++++++++++ooo++oo+++ooooooooo+++++++++++oo++++++oooooo+ ",
".-@@++++++++++@+++@+++++++++++++++++@++++++++@@++@@+++++@++++@@++@@+++++@++@@+++++++++@+++@+++++++++++++@++@@+++++@++++++++++++ ",
".-+++++++++++++++++++++++++++++++++++++++++++++++++++++++++++++++++++++++++++++++++++++++++++++++++++++++++++++++++++++++++++++ ",
".-@@@@+@@@@@@@+@@+@@@+@@+@@@@+@@+@@@@@@+@@@@@@+@@+@@@+@@+@@@@@+@@+@@@+@@+@@@@@@+@@@@@@+@@+@@@+@@+@@@@+@@+@@@@@@@@@@@@+@@@@@+@@@ "
};
