/* XPM */
static char *d2d962941f854185d592053d41806ade2USmJXyKGtaPecxk[] = {
/* columns rows colors chars-per-pixel */
"64 64 130 2 ",
"   c #190707",
".  c #170807",
"X  c #180807",
"o  c #170708",
"O  c #160909",
"+  c #1B0C0B",
"@  c #240E0E",
"#  c #2B0E0E",
"$  c #300E0F",
"%  c #22100F",
"&  c #28100F",
"*  c #260F10",
"=  c #2C0F10",
"-  c #310F10",
";  c #261010",
":  c #2C1111",
">  c #341112",
",  c #3D1314",
"<  c #3D1618",
"1  c #421514",
"2  c #491716",
"3  c #461914",
"4  c #4B1B15",
"5  c #471618",
"6  c #481718",
"7  c #4E1A19",
"8  c #511E16",
"9  c #521D19",
"0  c #5A1E19",
"q  c #4F2014",
"w  c #552216",
"e  c #5A2416",
"r  c #5D2817",
"t  c #552119",
"y  c #5C2519",
"u  c #5E2919",
"i  c #63251C",
"p  c #68271E",
"a  c #63291E",
"s  c #652B1D",
"d  c #672B1C",
"f  c #672C1D",
"g  c #632A1B",
"h  c #682A1B",
"j  c #692B1C",
"k  c #692B1D",
"l  c #6A2B1D",
"z  c #6A2C1C",
"x  c #6B2E1D",
"c  c #682C1E",
"v  c #6B2D1E",
"b  c #6C2E1E",
"n  c #6D2E1E",
"m  c #6C2F1E",
"M  c #6E2E1E",
"N  c #6C2D1D",
"B  c #772F1E",
"V  c #722E1E",
"C  c #6D301F",
"Z  c #6E301E",
"A  c #71301E",
"S  c #71311E",
"D  c #77311F",
"F  c #72311E",
"G  c #78301F",
"H  c #682820",
"J  c #692B20",
"K  c #6C2821",
"L  c #742F20",
"P  c #722C21",
"I  c #732628",
"U  c #742529",
"Y  c #742529",
"T  c #6E3222",
"R  c #743424",
"E  c #793120",
"W  c #7E3123",
"Q  c #7D3522",
"!  c #7D3623",
"~  c #7D3723",
"^  c #7F3623",
"/  c #7B3025",
"(  c #7F3224",
")  c #7A3627",
"_  c #793624",
"`  c #753826",
"'  c #7A3A25",
"]  c #7C3927",
"[  c #7F3927",
"{  c #7B3A27",
"}  c #773728",
"|  c #7D3B28",
" . c #823326",
".. c #803424",
"X. c #803724",
"o. c #833724",
"O. c #813526",
"+. c #823426",
"@. c #833526",
"#. c #853726",
"$. c #823623",
"%. c #803A23",
"&. c #813B24",
"*. c #873825",
"=. c #853826",
"-. c #883826",
";. c #883926",
":. c #833B28",
">. c #813D28",
",. c #813C29",
"<. c #823C2A",
"1. c #853E2A",
"2. c #853F2A",
"3. c #863F2B",
"4. c #873F2B",
"5. c #843C2A",
"6. c #893D2A",
"7. c #8B3F2B",
"8. c #8E3E2A",
"9. c #8C3E2D",
"0. c #883D29",
"q. c #833135",
"w. c #853337",
"e. c #86402A",
"r. c #87402C",
"t. c #89412B",
"y. c #8B402B",
"u. c #8C402C",
"i. c #8E402C",
"p. c #8B432D",
/* pixels */
"e.1.1.u.3.3.<.E [ ^ ^ 9.O. .W  . . .#.-.#.-.#.( Y / H H a 3 + ; | t.7.7.1.:.,.^ 1.%.%.7.$.$.^ F G G G I Q Q G B C M h h h < @ + ",
",.C C M m m a e g y a J a i 0 y i i a i a a H 0 0 7 5 1 , > O ; { S m m h h a u h y y N i y 0 y 9 9 9 e 0 i 0 9 9 4 3 3 , > O + ",
"q.k u y y t 9 9 4 9 e 0 t 9 9 9 9 9 0 0 e 9 9 9 5 5 1 - , # + ; ,.k u y e w 9 w 9 9 8 8 9 8 7 6 2 3 7 3 7 4 4 2 3 3 , , > : O + ",
"w.m y y y t t 9 w 9 9 9 y 9 7 9 6 7 0 2 9 7 9 7 5 5 1 > > : + : [ f r y w 4 9 4 2 6 2 5 4 3 2 2 3 1 1 1 5 5 1 1 1 , , $ > : O + ",
"7.m y e 9 9 9 9 6 9 7 6 5 6 6 7 2 2 2 5 5 5 7 1 1 1 , - > - o : 1.a w 9 4 6 3 6 5 5 5 5 1 1 1 1 1 1 , 1 1 , 1 , , 1 > > > > O + ",
"7.k y 9 9 0 9 6 9 6 6 1 1 1 1 5 1 1 5 1 1 1 1 1 , , > > - - o & _ i 8 8 6 3 1 1 1 1 , 1 1 1 1 1 1 , 1 1 1 1 1 1 , > > > > - O O ",
"^ y w 8 9 9 7 7 1 5 1 , 1 , , 1 1 1 1 , 1 1 < > , > > > > # . @ P 9 6 3 5 , 1 1 , 1 1 1 1 , 1 , 1 1 1 , , , , , , > > - > # O + ",
"5.a 9 8 9 9 5 5 3 1 1 , 1 1 1 , , , , , , , , > $ - $ > - # . & R e 3 5 , 1 1 , 1 1 , , 1 1 1 , , , , , , , , - , - - > & & O + ",
"..0 7 2 2 5 5 1 1 , , 1 , 1 1 , , , , , , > > , > - > # # # o ; I 9 2 5 1 , 1 1 1 , , 1 1 , 1 , , , , , > , > , - & > & $ # O O ",
"i 4 7 1 5 1 1 1 1 1 1 , , , , 1 , < , > > > > - > > & # # @ o ; y 4 5 1 , 1 1 , , 1 1 , 1 < , 1 , , > , > > > - - > - # # @ O O ",
"i 2 1 1 1 1 1 , , 1 , , 1 1 , , > > > > > > > - & > & # # + O @ i 2 5 1 5 , 1 1 , 1 , , 1 , , < > > > > > : - = & - & # & + O + ",
"0 3 1 , 1 1 , 1 , , , , , > > - > > : : ; = * = # @ # # @ + O @ i 2 1 1 , 1 , 1 , 1 > , , > - > > > : : : = # @ & & # & @ + O + ",
"0 1 $ , , - , - - , > - - - - - = ; : = & # @ @ @ @ @ @ @ + . % 0 1 , , - > > > > > - - - - - = : : : = ; ; @ @ # @ @ @ @ + . O ",
"1 $ # # = = = = = = = = * * * * ; ; * ; @ + @ @ @ +   @ + + . + 1 $ = = = = = = $ $ = = = * * = * * * * & @ @ @   + @ + + @ O + ",
"o o   X O O O O   o O O O O O O O O + + . . O O O o     + + o X   O O O +   O O o o o o + O O O O + o o o O + o X . o + O O O O ",
"; ; @ @ * * @ ; = * * * * O O O ; ; : : ; > ; & & @ & > > : > & = = = = = = * * @ # * * * O O O % ; : : : ; : ; ; @ ; ; ; ; @ & ",
"F S Z V N z h h g g h h i , + % R | 1.:.| ` ` C F Z F | D D D F D A B B / p i i H 0 i i u < + + T ` ` ` | ` ` C ' N Z ' Z Z Z Z ",
"e w w 8 4 4 3 3 3 3 3 1 3 - O : | S h C S h e w e q e h g h y y e 0 8 0 9 7 5 5 1 1 1 1 , > o % ` J u u g g r w r e w u w w w w ",
"8 4 q 4 3 3 3 1 , , , , > $ + : | g u y r r r w q q w y r u y 8 q w 7 7 5 1 1 , , , , > > > O % | u y w e w w w w w w w w q q q ",
"3 3 3 1 1 1 , , , , , > > $ + > ,.Z r e r e w w w w w y e w 9 3 4 3 7 1 2 5 1 1 1 , , > > > + & | u y w w w w w w w 4 w q q 3 4 ",
"3 1 1 , , 1 , 1 , , , - > > + : e.h i e w w w q 3 4 3 8 7 2 7 5 2 1 1 , , 5 1 , , , , - > > + ; | u w w w w q 4 4 4 3 4 3 3 3 2 ",
"1 , 1 1 1 , 1 , , , $ > > & + > ,.g w w 4 4 9 4 1 3 3 3 2 5 5 1 1 1 1 1 , 1 1 , , - - > > & + & | g 8 9 4 3 3 3 3 3 3 3 1 3 1 1 ",
", 1 1 , , , , , > > - > > & o > B e 4 4 3 6 7 6 1 1 1 1 2 5 1 , 1 1 , , , 1 , < , > > - > # o @ T t 4 4 3 1 1 1 1 1 1 1 1 1 1 , ",
", , , 1 , , , > , - - > - # + ; R t 3 3 5 3 2 3 1 1 , 1 1 , 1 1 , , , 1 1 , > , - > - > > ; o * R 9 7 6 3 , 1 , , 1 1 , 1 , 1 1 ",
", , , > , > , > - - : = # #   : M 4 5 1 1 , 1 1 1 , 1 , 1 1 1 < , , , , > , > > - > : # # @   * p 7 5 5 1 1 , 1 1 , 1 , 1 1 1 1 ",
", , , , > > > : > > > = # @ . @ 0 5 1 , 1 , 1 , , 1 1 , , , , , , , , > > > > > - - > = # @ O @ i 5 1 1 , , 1 1 1 1 , , , , , , ",
", > - > > : - - = = = = # + O @ 0 1 1 , 1 , 1 , 1 , , 1 1 , < , - > > > > = > : = = = # # @ . + 0 2 1 , 1 , , , , 1 , 1 , , , , ",
"> : > ; = = = # # # & @ @ + O @ 0 1 1 , , 1 , 1 , 1 , > , > - > > - > : : = = = # # # @ @ + . o 0 1 1 , , 1 , , , , > , , , - > ",
"= : ; : ; # @ @ @ @ @ @ @ + O @ 9 , > , > - > > - , - > - > = : = ; = = ; @ @ @ @ @ @ @ @ + O + 0 1 > > - > , , > > > > $ > - = ",
"* @ ; ; @ @ @ + @ + + + @   O + , $ : ; = - = = # = = = * = * * = * = * * @ @ @ @ O   @ + @ O O 1 # # $ = = = = = = = = @ # @ ; ",
"O O O O O O O O . O O O . O O O . O O O o O O O o o o + O O O O O O O O O O . . O O O O O + O O     + o O O O O O o O O O O O O ",
"@ ; + % * + @ @ @ @ + * @ + + % @ + @ @ @ + * % * + + + % + O O + + @ + @ @ @ + % + % % * + + * * + * * @ ; @ % % + ; + + + O + ",
"R R ' ` | | | S D N N S V N h N B z z z N N N N h h h a a , + + R R ` | | ` ` Z D Z Z ' Z C N S B A D B V p p h i h i i i , + + ",
"` u e r g u g y g e w e w w 8 w w q w w 8 w q w 3 3 1 1 1 > O ; ` g r u u g r q r e w g e q 8 w r w e w 8 9 4 3 3 2 3 1 1 > O + ",
"[ y r w r r e r r e q q q q 8 q q q q q q 8 4 4 3 1 , > > > + % | r y y w w w w w q q w w q q q w w w 9 4 7 1 1 1 , , , > - O + ",
"[ f e e y r e e w w w 4 q q 4 8 q q 4 q 4 3 4 3 2 , , > > > o ; | u w w w w t w w w q q q 4 3 q 3 3 7 4 5 1 1 , , , , $ > & O + ",
"p.m y r r r r w q q w 3 7 5 5 7 3 4 3 3 3 3 3 2 1 1 > > > - O & | g w w w q w 7 4 4 4 4 3 1 6 5 3 2 5 1 1 1 1 , , , , > > > O + ",
"t.Z y e w w w 4 q 4 3 6 5 5 5 1 3 3 3 3 1 2 2 1 , > > > - $ + % | r w 4 q 6 4 6 6 3 3 3 1 1 1 1 1 1 1 1 , 1 1 1 , , - > > - O + ",
"$.i w e w 4 3 3 3 3 6 1 1 , 1 1 1 1 1 1 , 1 1 1 , > > > > # . @ M w 4 3 3 3 3 1 3 1 1 1 1 1 1 , 1 1 , , , , 1 , > > - > > & O + ",
"0.h w 4 4 4 3 1 1 , 1 1 1 , 1 , , , , 1 , , > > > - > $ $ @ . % J 9 6 5 1 , 1 , 1 1 , 1 , 1 1 , , 1 , 1 , , , - > > - - $ % O + ",
"I e 9 3 4 1 1 1 1 , , 1 , 1 1 , , , , , > , > , - - : # $ # . @ k 7 1 , 1 , 1 1 1 , 1 , 1 < 1 , , , , , > , , > > > > # $ @ . + ",
"N 9 4 1 1 1 1 , 1 , 1 , , < , 1 1 $ , > > > > > > - > & # @ O + 0 3 , 1 , 1 1 , , 1 1 , 1 , , 1 , , , > > > > > > & $ # # @ O O ",
"h 8 2 1 1 , 1 , , 1 , 1 1 , , , , , $ > > : : > # # # # @   . @ 0 1 1 , , , 1 , , 1 , 1 1 < , , > > > > > : $ $ & > & & & @ O O ",
"i 2 1 1 , 1 , , , , , > > , - > $ $ # - : = # @ # # # @ @ @ . @ 0 1 , 1 1 , 1 , , , , > - , - > > > : : : = # # & & # & @ + O + ",
"0 , > - , - , - , - , - > : > : = : ; ; ; ; @ # @ # @ @ @ + . + 0 , , - , - , > , - > > - > = = = : = ; & & @ @ @ @ @ @ @ @ . O ",
"1 = - = # # = # # : = = @ & & ; @ = ; ; @ @ @ + + + + @ + + O + , # & = = = = ; # = = = = * * * * ; ; = & + @ + @   @ + + X O O ",
"+ o + O O O   O O O O O O O O O O O + O O O . . . O . .   . . . X . . O o O O O o O O O O O O O O O + O . O O . . . O O O O O O ",
"@ + + % @ @ + + @ + + % + o O O + + + % + + ; o % + % @ + + @ + @ @ @ % @ * + + @ + + + % + O O + + * + + @ % @ @ + + % % % % + ",
"V C S V V h i g h h h i i , O % T ` ` { [ { | F ' F C { G D V D D G D G N V N N k k H k k < + + T ` ` { | ` ` Z | C C ' S N C Z ",
"y w e 9 8 8 4 2 1 3 1 1 1 $ . & R g e u u u u w r w w r e w e w w w w q 8 8 3 3 2 3 5 , , > O @ ` g u u g h u e r e w u e w q w ",
"4 w w 4 2 2 1 1 1 , , , > - . ; ' w q w w w w e w w w w w w w w q 4 4 4 4 2 3 1 , 1 , , > - O + | r w y w w w e w w q w 8 q q q ",
"4 6 7 7 2 1 1 , 1 , , $ > - O : ' e w w e r e w q w e w w e w w 4 w 4 3 3 3 1 , , , , > > - O @ | f w w e y w w w e w q q q 4 4 ",
"3 6 5 2 3 , , 1 , , > > > - O : ` a e y r g u e w q q w q 8 9 4 8 3 2 1 , 1 1 , , , > $ > > O @ | u w e w w w 4 4 4 3 4 4 2 3 3 ",
"3 6 1 5 1 1 , , , , > > > - O ; { y w y y y r w q 3 4 3 3 3 8 3 3 3 1 1 , 1 1 , , > $ , > = O @ | u 8 w w 4 4 6 3 3 3 3 2 3 1 1 ",
", 1 , , , , , , , > > - > # . ; S e e y r r 0 0 4 3 1 1 3 3 1 2 1 1 , , 1 1 1 , > > > > > # O + T 9 4 4 6 6 6 1 3 1 1 1 , 1 1 1 ",
", 1 , 1 , , , , > - - - $ & O ; _ r e y y y 9 8 3 3 3 1 3 1 1 , , , , 1 > , , > , - - - # # O @ R 9 7 6 3 , 1 1 1 1 , 1 1 1 1 1 ",
", , , , , > , > > > - & $ # . & M 0 w w w 9 9 4 6 , , , , 1 1 , , , , , , , > , > = > # $ # O @ p 2 1 , 1 1 , 1 1 , 1 , 1 1 1 , ",
", , > > > > > $ - > - $ # @ O @ i 2 7 9 8 8 5 5 5 1 , , < , 1 , , , , > : > > - > - : # # @ o + 0 5 1 1 1 , 1 1 1 , , 1 , , 1 , ",
", > > > : > > > & & & & # + O % i 8 6 7 7 9 1 1 1 , , , 1 , < , , > > > > = : > = = = = # @ . + 0 1 1 , , , < , , , 1 1 1 1 , , ",
"> : > : : ; = & & # & # @ + . @ 0 2 6 1 5 5 1 1 , , , , , > > > > : : : : = = * # @ # @ @   O + 0 1 , 1 , 1 < , , 1 , - , > > - ",
": : : : ; ; % & @ @ % ; @ +   @ 9 < < < , , > > , - > - : : > : ; : : ; ; = @ @ % ; % @ * + O % 0 , > > > > > , , > > > - - - = ",
"* * * * % + % + @ + + + + @ . + < : : : = = : : = = - = ; ; ; ; ; ; ; ; * + @ @ + + O @ + + O O , - = - : : : = = : : ; * * * = ",
"O O O O O O O O . . O O O O . . O O O O O + O O + +   O O O O O O O O O O O . o O O O O + O O O O O + O O O O + + O O O O O o O ",
"O + + + + + O + + O + O + + + O + + + + O O O O + O + O + O O O + + + O O + + O + + + + O O + + + + + O + O O O O + + O O O O + "
};
